PathFileType  4	(X/Y/Z) C:\Users\antoi\Documents\MyRepositories\mobilecap\ResultsAnalysis
DataRate	CameraRate	NumFrames	NumMarkers	Units	OrigDataRate	OrigDataStartFrame	OrigNumFrames
100.0	100.0	4	55	mm	100.0	199	265
Frame#	Time	r_knee			r_shank_antsup			r_ankle			r_calc			r_5meta			r_toe			L_knee			L_shank_antsup			L_ankle			L_calc			L_5meta			L_toe			r_mknee			r_mankle			L_mknee			L_mankle			r_sh2			r_sh3			r_sh4			L_sh2			L_sh3			r_thigh1			r_thigh2			r_thigh3			r_thigh4			r_thigh5			L_thigh1			L_thigh2			L_thigh3			L_thigh4			r.ASIS			r.PSIS			L.ASIS			L.PSIS			C7			R_Shoulder			L_Shoulder			R_Sternum			L_Sternum			R_humerus			R_elbow_med			R_elbow_lat			R_forearm			R_wrist_radius			R_wrist_ulna			L_humerus			L_elbow_med			L_elbow_lat			L_forearm			L_wrist_radius			L_wrist_ulna			R_HJC			L_HJC			R_HJC_reg			L_HJC_reg			
		X1	Y1	Z1	X2	Y2	Z2	X3	Y3	Z3	X4	Y4	Z4	X5	Y5	Z5	X6	Y6	Z6	X7	Y7	Z7	X8	Y8	Z8	X9	Y9	Z9	X10	Y10	Z10	X11	Y11	Z11	X12	Y12	Z12	X13	Y13	Z13	X14	Y14	Z14	X15	Y15	Z15	X16	Y16	Z16	X17	Y17	Z17	X18	Y18	Z18	X19	Y19	Z19	X20	Y20	Z20	X21	Y21	Z21	X22	Y22	Z22	X23	Y23	Z23	X24	Y24	Z24	X25	Y25	Z25	X26	Y26	Z26	X27	Y27	Z27	X28	Y28	Z28	X29	Y29	Z29	X30	Y30	Z30	X31	Y31	Z31	X32	Y32	Z32	X33	Y33	Z33	X34	Y34	Z34	X35	Y35	Z35	X36	Y36	Z36	X37	Y37	Z37	X38	Y38	Z38	X39	Y39	Z39	X40	Y40	Z40	X41	Y41	Z41	X42	Y42	Z42	X43	Y43	Z43	X44	Y44	Z44	X45	Y45	Z45	X46	Y46	Z46	X47	Y47	Z47	X48	Y48	Z48	X49	Y49	Z49	X50	Y50	Z50	X51	Y51	Z51	X52	Y52	Z52	X53	Y53	Z53	X54	Y54	Z54	X55	Y55	Z55	

199	1.98000000	-206.19892	501.57647	-391.86513	-173.51522	433.64532	-402.76537	-250.69259	98.77139	-366.03767	-320.95508	63.90199	-394.19633	-144.61098	45.90616	-335.66036	-102.28305	70.05835	-396.13288	-215.79974	497.56847	-731.84157	-193.04678	410.27698	-741.40658	-254.88223	101.15483	-740.60322	-320.53590	62.51406	-698.88461	-151.10272	42.81258	-788.20549	-110.23447	62.92556	-732.45818	-209.33834	486.64859	-513.02055	-239.80667	104.84853	-444.34003	-212.68706	487.35811	-608.78117	-224.93715	100.27574	-664.65701	-198.01432	326.32118	-365.74135	-248.33082	452.40418	-371.36603	-269.42308	343.31553	-355.26589	-280.04369	421.99867	-745.74667	-283.29858	300.50195	-761.94335	-131.83677	820.91779	-387.48834	-136.60401	709.11592	-389.45473	-193.76449	686.86523	-360.32327	-243.69569	824.35854	-367.64292	-246.81136	707.26302	-369.36299	-164.20546	765.69544	-765.86727	-166.86392	628.13630	-747.79644	-276.74254	767.06696	-736.12084	-272.53802	626.70578	-726.16920	-113.44557	978.68778	-438.86060	-309.33826	1013.84995	-523.84603	-105.90046	958.88980	-691.72727	-312.93917	1009.45291	-620.41867	-327.72273	1419.05414	-583.93420	-229.31210	1390.16421	-403.07122	-255.89011	1390.14747	-763.60938	-188.61830	1400.92371	-562.86502	-184.64814	1404.14860	-603.85299	-208.53137	1248.18960	-350.07433	-266.42889	1042.71103	-403.94950	-242.30379	1052.95071	-337.76736	-161.22810	935.78318	-334.59887	-117.42347	806.41034	-342.40116	-139.91586	797.25909	-316.27169	-227.21885	1271.01859	-815.71006	-266.18581	1040.78693	-742.08846	-237.88053	1054.86958	-813.60401	-165.82531	965.06941	-799.01436	-119.64907	811.39695	-790.86478	-141.79881	805.17984	-814.34331	-191.65768	897.84073	-460.26627	-188.94237	886.47749	-666.40634	-181.67649	899.60945	-468.26353	-187.91045	891.99717	-635.45090	
200	1.99000000	-206.21669	501.59414	-391.88027	-173.51786	433.62345	-402.73605	-250.63593	98.81608	-365.99649	-321.00547	63.90539	-394.24027	-144.62127	45.88569	-335.66359	-102.29822	70.05870	-396.10735	-215.78904	497.56312	-731.80909	-193.05149	410.27476	-741.38994	-254.88288	101.15721	-740.59701	-320.53154	62.51517	-698.86632	-151.09786	42.83625	-788.17502	-110.23846	62.95217	-732.43655	-209.33116	486.63881	-513.00831	-239.80773	104.87215	-444.33509	-212.68513	487.35799	-608.77639	-224.94091	100.31716	-664.62691	-198.02670	326.28398	-365.73999	-248.34071	452.39263	-371.35659	-269.51658	343.28753	-355.31252	-280.01947	422.01151	-745.77873	-283.29440	300.54563	-761.92226	-131.85196	820.90292	-387.46884	-136.66339	709.17258	-389.40695	-193.75112	686.89630	-360.27683	-243.68693	824.39345	-367.63370	-246.81560	707.29578	-369.38296	-164.25849	765.69836	-765.94912	-166.85821	628.15169	-747.78763	-276.69433	767.10811	-736.18745	-272.49556	626.69640	-726.13231	-113.43876	978.68002	-438.84537	-309.32483	1013.79785	-523.84519	-105.87922	958.90208	-691.72297	-312.94216	1009.43674	-620.40634	-327.68562	1419.04705	-583.91853	-229.29249	1390.15560	-403.05124	-255.81123	1390.20917	-763.62796	-188.59931	1400.95097	-562.84665	-184.64048	1404.20755	-603.81611	-208.53382	1248.19173	-350.08579	-266.43746	1042.72699	-403.96196	-242.26415	1052.93365	-337.75447	-161.18290	935.81807	-334.60957	-117.39689	806.41296	-342.42238	-139.89474	797.25250	-316.27787	-227.18013	1271.06190	-815.71376	-266.15988	1040.81251	-742.07905	-237.81990	1054.91452	-813.68130	-165.77462	965.12525	-799.00100	-119.61120	811.44197	-790.87924	-141.76124	805.20892	-814.34026	-191.63402	897.81615	-460.26788	-188.91110	886.47636	-666.40914	-181.62141	899.54811	-468.26284	-187.88490	891.99679	-635.45827	
201	2.00000000	-206.20747	501.58666	-391.87485	-173.51160	433.60769	-402.69431	-250.66511	98.78530	-366.02746	-320.96325	63.92610	-394.20869	-144.61107	45.89863	-335.65940	-102.28480	70.06719	-396.06922	-215.77631	497.56040	-731.76691	-193.05741	410.27623	-741.37355	-254.88250	101.16098	-740.59537	-320.54449	62.49538	-698.82956	-151.09531	42.85937	-788.14434	-110.23817	62.96262	-732.41931	-209.33453	486.64275	-513.01256	-239.80587	104.90314	-444.33156	-212.68166	487.35530	-608.77143	-224.91858	100.36045	-664.60615	-198.04275	326.19177	-365.72994	-248.36196	452.43024	-371.35972	-269.32292	343.00959	-355.14431	-280.04289	422.01029	-745.71907	-283.31577	300.52277	-761.91306	-131.82638	820.89640	-387.47833	-136.61954	709.07215	-389.37348	-193.72566	686.90159	-360.27620	-243.66712	824.39238	-367.62268	-246.81143	707.27619	-369.38575	-164.26821	765.71152	-765.98503	-166.84855	628.17209	-747.77813	-276.68149	767.12831	-736.22659	-272.47208	626.71045	-726.12663	-113.40067	978.66839	-438.83846	-309.37614	1013.75278	-523.81513	-105.85948	958.91919	-691.71707	-312.91757	1009.43995	-620.38427	-327.66680	1419.03890	-583.92404	-229.28024	1390.11512	-403.00072	-255.73804	1390.25289	-763.64477	-188.59446	1400.96066	-562.82633	-184.61453	1404.24416	-603.79412	-208.51933	1248.18256	-350.08829	-266.40193	1042.70927	-403.96227	-242.28892	1052.92752	-337.75452	-161.15834	935.81925	-334.60168	-117.38002	806.41251	-342.43082	-139.86414	797.24505	-316.25249	-227.13320	1271.09681	-815.70123	-266.11951	1040.83890	-742.09698	-237.76352	1054.95618	-813.71484	-165.72313	965.15626	-798.98673	-119.56792	811.47888	-790.88876	-141.71876	805.23116	-814.31399	-191.60913	897.79164	-460.26775	-188.88922	886.48723	-666.41099	-181.63472	899.46086	-468.34781	-187.76656	891.99343	-635.55073	
202	2.01000000	-206.16458	501.53323	-391.87784	-173.48998	433.63248	-402.65236	-250.75004	98.74523	-366.09164	-320.90521	63.92533	-394.15530	-144.59947	45.91718	-335.65882	-102.26192	70.09907	-396.06118	-215.76941	497.57604	-731.75989	-193.04232	410.30018	-741.37860	-254.88223	101.16662	-740.59520	-320.57039	62.46605	-698.78576	-151.09335	42.87450	-788.13933	-110.22994	62.96894	-732.41334	-209.33268	486.64471	-513.02042	-239.79984	104.93451	-444.33437	-212.67616	487.35333	-608.76727	-224.90341	100.36098	-664.59843	-198.06115	326.14942	-365.71188	-248.37746	452.46219	-371.37527	-268.99845	342.77495	-354.93738	-280.06519	422.01046	-745.67547	-283.31573	300.53829	-761.90227	-131.79660	820.89095	-387.52371	-136.53658	708.95327	-389.38447	-193.71374	686.86021	-360.34968	-243.65603	824.38083	-367.62142	-246.79811	707.23637	-369.35534	-164.18299	765.72981	-765.93781	-166.83391	628.18855	-747.76770	-276.68579	767.13799	-736.21763	-272.46163	626.76943	-726.17653	-113.36615	978.66023	-438.85282	-309.41827	1013.73606	-523.78811	-105.84408	958.93573	-691.72438	-312.90963	1009.46382	-620.37092	-327.69919	1419.04157	-583.96035	-229.24971	1390.10863	-402.95519	-255.68060	1390.29380	-763.63456	-188.58957	1401.00395	-562.84842	-184.58662	1404.28454	-603.77778	-208.45329	1248.18668	-350.09568	-266.32335	1042.66817	-403.94185	-242.29397	1052.93740	-337.75241	-161.16388	935.78826	-334.59634	-117.37456	806.40576	-342.39901	-139.83981	797.26735	-316.24705	-227.06252	1271.12432	-815.66183	-266.05812	1040.88267	-742.14720	-237.68842	1055.02658	-813.76348	-165.67799	965.19000	-798.97224	-119.52320	811.51927	-790.88400	-141.66422	805.26472	-814.31118	-191.59318	897.78022	-460.27821	-188.88684	886.50682	-666.42333	-181.64161	899.39977	-468.42844	-187.68585	892.00368	-635.63163	
